# Blender v2.78 (sub 0) OBJ File: ''
# www.blender.org
mtllib Thoth.mtl
o Oingo.rip.002
v 0.108142 0.000644 0.150631
v 0.108142 0.010138 0.150631
v 0.108142 0.010138 -0.150632
v 0.108142 0.000644 -0.150632
v 0.108142 0.010138 -0.150632
v 0.108142 0.010138 0.150631
v 0.100486 0.010138 0.144340
v 0.100486 0.010138 -0.144340
v -0.082486 0.010138 -0.150632
v -0.082486 0.010138 -0.144340
v -0.096234 0.010138 -0.150632
v -0.096234 0.010138 -0.144340
v -0.082486 0.010138 0.150631
v -0.082486 0.010138 0.144340
v -0.096234 0.010138 0.150631
v -0.096234 0.010138 0.144340
v 0.100486 0.010138 -0.144340
v 0.100486 0.010138 0.144340
v 0.100486 0.026483 0.144340
v 0.100486 0.026483 -0.144340
v -0.096234 0.000644 0.150631
v -0.104155 0.010036 0.150631
v -0.096234 0.010138 0.150631
v -0.082486 0.000644 0.150631
v -0.082486 0.010138 0.150631
v -0.108287 0.026483 0.150631
v -0.099533 0.026483 0.150631
v -0.096234 0.042828 0.150631
v -0.104155 0.042930 0.150631
v -0.096234 0.052322 0.150631
v -0.082486 0.052322 0.150631
v -0.082486 0.042828 0.150631
v 0.108142 0.052322 0.150631
v 0.108142 0.042828 0.150631
v 0.108142 0.000644 0.150631
v 0.108142 0.010138 0.150631
v -0.096234 0.000644 -0.150632
v -0.104155 0.010036 -0.150632
v -0.104155 0.010036 0.150631
v -0.096234 0.000644 0.150631
v -0.082486 0.000644 -0.150632
v -0.082486 0.000644 0.150631
v -0.108287 0.026483 0.150631
v -0.108287 0.026483 -0.150632
v -0.104155 0.042930 -0.150632
v -0.104155 0.042930 0.150631
v -0.096234 0.052322 -0.150632
v -0.096234 0.052322 0.150631
v 0.108142 0.000644 -0.150632
v 0.108142 0.000644 0.150631
v -0.082486 0.052322 -0.150632
v -0.082486 0.052322 0.150631
v 0.108142 0.052322 -0.150632
v 0.108142 0.052322 0.150631
v -0.096234 0.010138 -0.150632
v -0.104155 0.010036 -0.150632
v -0.096234 0.000644 -0.150632
v -0.082486 0.010138 -0.150632
v -0.082486 0.000644 -0.150632
v -0.099533 0.026483 -0.150632
v -0.108287 0.026483 -0.150632
v -0.104155 0.042930 -0.150632
v -0.096234 0.042828 -0.150632
v -0.096234 0.052322 -0.150632
v -0.082486 0.042828 -0.150632
v -0.082486 0.052322 -0.150632
v 0.108142 0.042828 -0.150632
v 0.108142 0.052322 -0.150632
v 0.108142 0.010138 -0.150632
v 0.108142 0.000644 -0.150632
v 0.001018 0.026483 -0.144340
v 0.100486 0.026483 -0.144340
v 0.100486 0.026483 0.144340
v 0.001018 0.026483 0.144340
v -0.082486 0.026483 0.144340
v -0.082486 0.026483 -0.144340
v -0.099533 0.026483 -0.144340
v -0.097884 0.026483 0.144340
v 0.001018 0.026483 0.144340
v 0.100486 0.026483 0.144340
v 0.100486 0.010138 0.144340
v -0.082486 0.010138 0.144340
v -0.082486 0.026483 0.144340
v -0.096234 0.010138 0.144340
v -0.097884 0.026483 0.144340
v 0.100486 0.010138 -0.144340
v 0.100486 0.026483 -0.144340
v 0.001018 0.026483 -0.144340
v -0.082486 0.010138 -0.144340
v -0.082486 0.026483 -0.144340
v -0.096234 0.010138 -0.144340
v -0.099533 0.026483 -0.144340
v -0.096234 0.010138 0.144340
v -0.096234 0.010138 0.150631
v -0.099533 0.026483 0.150631
v -0.097884 0.026483 0.144340
v -0.096234 0.042828 0.144340
v -0.097884 0.026483 0.144340
v -0.099533 0.026483 0.150631
v -0.096234 0.042828 0.150631
v -0.099533 0.026483 -0.144340
v -0.099533 0.026483 -0.150632
v -0.096234 0.010138 -0.150632
v -0.096234 0.010138 -0.144340
v -0.099533 0.026483 -0.144340
v -0.096234 0.042828 -0.144340
v -0.096234 0.042828 -0.150632
v -0.099533 0.026483 -0.150632
v 0.108142 0.052322 0.150631
v 0.108142 0.052322 -0.150632
v 0.108142 0.042828 -0.150632
v 0.108142 0.042828 0.150631
v 0.108142 0.042828 -0.150632
v 0.100486 0.042828 -0.144340
v 0.100486 0.042828 0.144340
v 0.108142 0.042828 0.150631
v -0.082486 0.042828 0.150631
v -0.082486 0.042828 0.144340
v -0.082486 0.042828 -0.144340
v -0.082486 0.042828 -0.150632
v -0.096234 0.042828 0.150631
v -0.096234 0.042828 0.144340
v -0.096234 0.042828 -0.150632
v -0.096234 0.042828 -0.144340
v 0.100486 0.042828 -0.144340
v 0.100486 0.026483 -0.144340
v 0.100486 0.026483 0.144340
v 0.100486 0.042828 0.144340
v 0.001018 0.026483 -0.144340
v 0.001018 0.026483 0.144340
v 0.100486 0.026483 0.144340
v 0.100486 0.026483 -0.144340
v -0.082486 0.026483 0.144340
v -0.082486 0.026483 -0.144340
v -0.097884 0.026483 0.144340
v -0.099533 0.026483 -0.144340
v 0.001018 0.026483 0.144340
v 0.100486 0.042828 0.144340
v 0.100486 0.026483 0.144340
v -0.082486 0.042828 0.144340
v -0.082486 0.026483 0.144340
v -0.096234 0.042828 0.144340
v -0.097884 0.026483 0.144340
v 0.001018 0.026483 -0.144340
v 0.100486 0.042828 -0.144340
v -0.082486 0.042828 -0.144340
v 0.100486 0.026483 -0.144340
v -0.082486 0.026483 -0.144340
v -0.099533 0.026483 -0.144340
v -0.096234 0.042828 -0.144340
vt 0.0232 0.9453
vt 0.0112 0.9573
vt 0.0112 0.5116
vt 0.0232 0.5241
vt 0.6797 0.5151
vt 0.6797 0.9410
vt 0.6905 0.9318
vt 0.6905 0.5240
vt 0.9488 0.5151
vt 0.9488 0.5240
vt 0.9681 0.5151
vt 0.9681 0.5240
vt 0.9488 0.9410
vt 0.9488 0.9318
vt 0.9681 0.9410
vt 0.9681 0.9318
vt 0.7746 0.9925
vt 0.4554 0.9925
vt 0.4554 0.9744
vt 0.7746 0.9744
vt 0.2992 0.9453
vt 0.3139 0.9453
vt 0.3070 0.9573
vt 0.2812 0.9453
vt 0.2812 0.9573
vt 0.3347 0.9453
vt 0.3347 0.9573
vt 0.3642 0.9573
vt 0.3569 0.9453
vt 0.3713 0.9453
vt 0.3884 0.9453
vt 0.3884 0.9573
vt 0.6491 0.9453
vt 0.6612 0.9573
vt 0.0232 0.9453
vt 0.0112 0.9573
vt 0.2992 0.5241
vt 0.3139 0.5241
vt 0.3139 0.9453
vt 0.2992 0.9453
vt 0.2812 0.5241
vt 0.2812 0.9453
vt 0.3347 0.9453
vt 0.3347 0.5241
vt 0.3569 0.5241
vt 0.3569 0.9453
vt 0.3713 0.5241
vt 0.3713 0.9453
vt 0.0232 0.5241
vt 0.0232 0.9453
vt 0.3884 0.5241
vt 0.3884 0.9453
vt 0.6491 0.5241
vt 0.6491 0.9453
vt 0.3070 0.5116
vt 0.3139 0.5241
vt 0.2992 0.5241
vt 0.2812 0.5116
vt 0.2812 0.5241
vt 0.3347 0.5116
vt 0.3347 0.5241
vt 0.3569 0.5241
vt 0.3642 0.5116
vt 0.3713 0.5241
vt 0.3884 0.5116
vt 0.3884 0.5241
vt 0.6612 0.5116
vt 0.6491 0.5241
vt 0.0112 0.5116
vt 0.0232 0.5241
vt 0.8447 0.5411
vt 0.7167 0.5411
vt 0.7167 0.9140
vt 0.8447 0.9140
vt 0.9521 0.9140
vt 0.9521 0.5411
vt 0.9740 0.5411
vt 0.9740 0.9140
vt 0.3454 0.9744
vt 0.4554 0.9744
vt 0.4554 0.9925
vt 0.2531 0.9925
vt 0.2531 0.9744
vt 0.2361 0.9925
vt 0.2361 0.9744
vt 0.7746 0.9925
vt 0.7746 0.9744
vt 0.8846 0.9744
vt 0.9770 0.9925
vt 0.9770 0.9744
vt 0.9922 0.9925
vt 0.9922 0.9744
vt 0.9681 0.9318
vt 0.9681 0.9410
vt 0.9913 0.9410
vt 0.9913 0.9318
vt 0.9681 0.9318
vt 0.9913 0.9318
vt 0.9913 0.9410
vt 0.9681 0.9410
vt 0.9913 0.5240
vt 0.9913 0.5151
vt 0.9681 0.5151
vt 0.9681 0.5240
vt 0.9913 0.5240
vt 0.9681 0.5240
vt 0.9681 0.5151
vt 0.9913 0.5151
vt 0.6491 0.9453
vt 0.6491 0.5241
vt 0.6612 0.5116
vt 0.6612 0.9573
vt 0.6797 0.5151
vt 0.6905 0.5240
vt 0.6905 0.9318
vt 0.6797 0.9410
vt 0.9488 0.9410
vt 0.9488 0.9318
vt 0.9488 0.5240
vt 0.9488 0.5151
vt 0.9681 0.9410
vt 0.9681 0.9318
vt 0.9681 0.5151
vt 0.9681 0.5240
vt 0.7746 0.9925
vt 0.7746 0.9744
vt 0.4554 0.9744
vt 0.4554 0.9925
vt 0.8447 0.5411
vt 0.8447 0.9140
vt 0.7167 0.9140
vt 0.7167 0.5411
vt 0.9521 0.9140
vt 0.9521 0.5411
vt 0.9740 0.9140
vt 0.9740 0.5411
vt 0.3454 0.9744
vt 0.4554 0.9925
vt 0.4554 0.9744
vt 0.2531 0.9925
vt 0.2531 0.9744
vt 0.2361 0.9925
vt 0.2361 0.9744
vt 0.8846 0.9744
vt 0.7746 0.9925
vt 0.9770 0.9925
vt 0.7746 0.9744
vt 0.9770 0.9744
vt 0.9922 0.9744
vt 0.9922 0.9925
vn -1.0000 0.0000 -0.0000
vn 0.0000 -1.0000 0.0000
vn 0.0000 -0.0000 -1.0000
vn 0.4215 0.9068 -0.0000
vn 0.8900 0.4559 -0.0000
vn -0.0000 1.0000 -0.0000
vn 1.0000 0.0000 -0.0000
vn 0.8900 -0.4559 0.0000
vn 0.4215 -0.9068 0.0000
vn 0.0000 0.0000 1.0000
vn -0.9827 -0.1753 -0.0599
vn -0.9802 -0.1978 0.0000
vn -0.9734 -0.1217 -0.1943
vn -0.9627 -0.0971 -0.2524
vn -0.9827 0.1753 -0.0599
vn -0.9627 0.0971 -0.2524
vn -0.9734 0.1217 -0.1943
vn -0.9802 0.1978 0.0000
usemtl Oingo.rip
s 1
f 1/1/1 2/2/1 3/3/1
f 1/1/1 3/3/1 4/4/1
f 5/5/2 6/6/2 7/7/2
f 5/5/2 7/7/2 8/8/2
f 9/9/2 5/5/2 8/8/2
f 9/9/2 8/8/2 10/10/2
f 11/11/2 9/9/2 10/10/2
f 11/11/2 10/10/2 12/12/2
f 7/7/2 6/6/2 13/13/2
f 7/7/2 13/13/2 14/14/2
f 14/14/2 13/13/2 15/15/2
f 14/14/2 15/15/2 16/16/2
f 17/17/1 18/18/1 19/19/1
f 17/17/1 19/19/1 20/20/1
f 21/21/3 22/22/3 23/23/3
f 23/23/3 24/24/3 21/21/3
f 23/23/3 25/25/3 24/24/3
f 23/23/3 22/22/3 26/26/3
f 23/23/3 26/26/3 27/27/3
f 28/28/3 27/27/3 26/26/3
f 28/28/3 26/26/3 29/29/3
f 30/30/3 28/28/3 29/29/3
f 28/28/3 30/30/3 31/31/3
f 28/28/3 31/31/3 32/32/3
f 32/32/3 31/31/3 33/33/3
f 32/32/3 33/33/3 34/34/3
f 25/25/3 35/35/3 24/24/3
f 25/25/3 36/36/3 35/35/3
f 37/37/4 38/38/5 39/39/5
f 37/37/4 39/39/5 40/40/4
f 40/40/4 41/41/6 37/37/4
f 40/40/4 42/42/6 41/41/6
f 38/38/5 43/43/7 39/39/5
f 38/38/5 44/44/7 43/43/7
f 45/45/8 43/43/7 44/44/7
f 45/45/8 46/46/8 43/43/7
f 47/47/9 46/46/8 45/45/8
f 47/47/9 48/48/9 46/46/8
f 42/42/6 49/49/6 41/41/6
f 42/42/6 50/50/6 49/49/6
f 48/48/9 47/47/9 51/51/2
f 48/48/9 51/51/2 52/52/2
f 52/52/2 51/51/2 53/53/2
f 52/52/2 53/53/2 54/54/2
f 55/55/10 56/56/10 57/57/10
f 57/57/10 58/58/10 55/55/10
f 57/57/10 59/59/10 58/58/10
f 56/56/10 55/55/10 60/60/10
f 56/56/10 60/60/10 61/61/10
f 62/62/10 61/61/10 60/60/10
f 62/62/10 60/60/10 63/63/10
f 63/63/10 64/64/10 62/62/10
f 64/64/10 63/63/10 65/65/10
f 64/64/10 65/65/10 66/66/10
f 66/66/10 65/65/10 67/67/10
f 66/66/10 67/67/10 68/68/10
f 59/59/10 69/69/10 58/58/10
f 59/59/10 70/70/10 69/69/10
f 71/71/2 72/72/2 73/73/2
f 71/71/2 73/73/2 74/74/2
f 71/71/2 74/74/2 75/75/2
f 71/71/2 75/75/2 76/76/2
f 75/75/2 77/77/2 76/76/2
f 75/75/2 78/78/2 77/77/2
f 79/79/3 80/80/3 81/81/3
f 79/79/3 81/81/3 82/82/3
f 79/79/3 82/82/3 83/83/3
f 83/83/3 82/82/3 84/84/3
f 83/83/3 84/84/3 85/85/3
f 86/86/10 87/87/10 88/88/10
f 88/88/10 89/89/10 86/86/10
f 88/88/10 90/90/10 89/89/10
f 90/90/10 91/91/10 89/89/10
f 90/90/10 92/92/10 91/91/10
f 93/93/11 94/94/12 95/95/13
f 93/93/11 95/95/13 96/96/14
f 97/97/15 98/98/16 99/99/17
f 97/97/15 99/99/17 100/100/18
f 101/101/12 102/102/12 103/103/12
f 101/101/12 103/103/12 104/104/12
f 105/105/18 106/106/18 107/107/18
f 105/105/18 107/107/18 108/108/18
f 109/109/1 110/110/1 111/111/1
f 109/109/1 111/111/1 112/112/1
f 113/113/6 114/114/6 115/115/6
f 113/113/6 115/115/6 116/116/6
f 115/115/6 117/117/6 116/116/6
f 115/115/6 118/118/6 117/117/6
f 119/119/6 114/114/6 113/113/6
f 119/119/6 113/113/6 120/120/6
f 118/118/6 121/121/6 117/117/6
f 118/118/6 122/122/6 121/121/6
f 123/123/6 119/119/6 120/120/6
f 123/123/6 124/124/6 119/119/6
f 125/125/1 126/126/1 127/127/1
f 125/125/1 127/127/1 128/128/1
f 129/129/6 130/130/6 131/131/6
f 129/129/6 131/131/6 132/132/6
f 129/129/6 133/133/6 130/130/6
f 129/129/6 134/134/6 133/133/6
f 134/134/6 135/135/6 133/133/6
f 134/134/6 136/136/6 135/135/6
f 137/137/3 138/138/3 139/139/3
f 137/137/3 140/140/3 138/138/3
f 137/137/3 141/141/3 140/140/3
f 141/141/3 142/142/3 140/140/3
f 141/141/3 143/143/3 142/142/3
f 144/144/10 145/145/10 146/146/10
f 145/145/10 144/144/10 147/147/10
f 144/144/10 146/146/10 148/148/10
f 146/146/10 149/149/10 148/148/10
f 146/146/10 150/150/10 149/149/10
